<mxfile host="app.diagrams.net" modified="2022-09-29T18:42:58.307Z" agent="5.0 (Windows NT 10.0; Win64; x64) AppleWebKit/537.36 (KHTML, like Gecko) Chrome/105.0.0.0 Safari/537.36" etag="b_EBPK1oXB2iVwzgaaYi" version="20.2.5" type="github">
  <diagram id="prtHgNgQTEPvFCAcTncT" name="Page-1">
    <mxGraphModel dx="1038" dy="585" grid="1" gridSize="10" guides="1" tooltips="1" connect="1" arrows="1" fold="1" page="1" pageScale="1" pageWidth="827" pageHeight="1169" math="0" shadow="0">
      <root>
        <mxCell id="0" />
        <mxCell id="1" parent="0" />
        <mxCell id="EMOTPG73dO0Suh2MI1oA-2" value="&lt;ul&gt;&lt;li style=&quot;text-align: justify;&quot;&gt;&lt;b&gt;HTML&lt;/b&gt;&lt;/li&gt;&lt;li style=&quot;text-align: justify;&quot;&gt;&lt;b&gt;CSS&lt;/b&gt;&lt;/li&gt;&lt;li style=&quot;text-align: justify;&quot;&gt;&lt;b&gt;JavaScript&lt;/b&gt;&lt;/li&gt;&lt;li style=&quot;text-align: justify;&quot;&gt;&lt;b&gt;Node.JS&lt;/b&gt;&lt;/li&gt;&lt;li style=&quot;text-align: justify;&quot;&gt;&lt;b&gt;Mongo DB&lt;/b&gt;&lt;/li&gt;&lt;li style=&quot;text-align: justify;&quot;&gt;&lt;b&gt;React&lt;/b&gt;&lt;/li&gt;&lt;li style=&quot;text-align: justify;&quot;&gt;&lt;b&gt;Redux&lt;/b&gt;&lt;/li&gt;&lt;li style=&quot;text-align: justify;&quot;&gt;&lt;b&gt;SASS(SCSS)&lt;/b&gt;&lt;/li&gt;&lt;li style=&quot;text-align: justify;&quot;&gt;&lt;b&gt;Bootstrap&lt;/b&gt;&lt;/li&gt;&lt;li style=&quot;text-align: justify;&quot;&gt;&lt;b&gt;Git&lt;/b&gt;&lt;/li&gt;&lt;li style=&quot;text-align: justify;&quot;&gt;&lt;b&gt;WebPack&lt;/b&gt;&lt;/li&gt;&lt;li style=&quot;text-align: justify;&quot;&gt;&lt;b&gt;ESlint&lt;/b&gt;&lt;/li&gt;&lt;li style=&quot;text-align: justify;&quot;&gt;&lt;b&gt;Figma&lt;/b&gt;&lt;/li&gt;&lt;li style=&quot;text-align: justify;&quot;&gt;&lt;b&gt;Photoshop&lt;/b&gt;&lt;/li&gt;&lt;li style=&quot;text-align: justify;&quot;&gt;&lt;b&gt;API&lt;/b&gt;&lt;/li&gt;&lt;/ul&gt;" style="rounded=0;whiteSpace=wrap;html=1;align=left;" vertex="1" parent="1">
          <mxGeometry x="110" y="110" width="360" height="360" as="geometry" />
        </mxCell>
      </root>
    </mxGraphModel>
  </diagram>
</mxfile>
